<svg width="855" height="871" viewBox="0 0 855 871" fill="none" xmlns="http://www.w3.org/2000/svg">
<g filter="url(#filter0_d_1_57)">
<path d="M228.341 1.37191C248.649 0.0196804 269.056 -0.64414 289.388 0.855603C318.891 3.01917 349.575 2.37993 377.307 14.1812C391.641 19.9343 403.737 31.2192 409.712 45.5283C418.981 67.0901 418.759 91.0614 419.472 114.098C421.341 155.231 421.193 196.683 415.268 237.52C411.949 259.131 400.541 280.422 381.438 291.904C364.129 301.665 343.674 302.353 324.349 303.705C279.062 306.901 233.652 304.467 188.438 301.345C171.228 300.337 153.575 294.633 141.184 282.217C129.874 271.645 123.064 257.09 120.089 242.068C114.336 212.049 116.205 181.341 115 150.953C115.688 125.162 116.057 99.2977 119.376 73.6792C122.13 55.2397 128.006 36.0627 141.897 22.9092C152.518 12.411 167.589 8.62476 181.874 6.33827C197.289 4.12553 212.803 2.52745 228.341 1.37191ZM204.517 83.3906C199.797 86.0459 195.863 91.1844 196.183 96.8146C196.822 102.027 199.158 106.846 201.321 111.591C217.548 145.446 233.455 179.423 249.583 213.303C253.911 223.752 267.507 226.628 277.194 222.498C283.438 219.695 286.438 213.131 289.167 207.304C304.828 173.744 320.809 140.356 336.642 106.895C338.781 101.806 341.019 95.7574 338.29 90.4468C335.02 84.5216 328.578 80.4895 321.694 81.2025C287.175 81.1779 252.657 81.3254 218.163 81.1533C213.565 81.35 208.55 80.7354 204.517 83.3906Z" fill="#3E3588"/>
<path d="M524.504 3.11751C558.432 -0.7179 592.631 -0.668728 626.634 2.10948C652.965 3.68298 680.723 5.62528 703.883 19.5655C718.561 28.2689 727.215 44.2498 730.927 60.4765C735.943 81.9646 735.132 104.19 736.164 126.072C737.738 162.361 736.705 198.822 731.862 234.84C729.551 253.919 720.995 272.555 706.636 285.536C695.057 295.789 679.518 299.919 664.496 301.689C610.087 307.565 555.236 305.107 500.803 300.952C480.421 299.403 460.31 289.396 448.754 272.186C435.478 253.525 433.929 229.775 432.479 207.697C430.979 163.295 430.364 118.671 435.527 74.4659C438.502 52.9532 446.296 29.6949 465.252 17.1561C482.954 6.21534 504.466 5.69903 524.504 3.11751ZM575.888 68.8603C562.096 71.8598 551.966 85.4313 552.163 99.3961C552.065 134.652 552.114 169.909 552.138 205.165C551.352 222.621 567.185 238.577 584.739 237.225C600.647 237.618 615.693 223.899 615.693 207.771C615.718 170.818 615.816 133.841 615.644 96.8637C615.373 77.4162 594.082 63.8202 575.888 68.8603Z" fill="#AA2022"/>
<path d="M6.76146 706.598C11.2815 702.918 17.4015 700.798 23.2148 702.105C26.3615 702.732 27.3882 706.052 28.4548 708.638C37.0282 731.718 45.8282 754.705 54.4148 777.772C63.1748 754.665 71.9615 731.572 80.6682 708.438C81.6815 705.825 82.9615 702.692 86.0281 702.012C92.3615 700.932 99.0281 703.785 103.428 708.278C106.348 711.705 103.855 716.145 102.521 719.692C90.0815 749.198 78.0415 778.878 65.6015 808.372C64.1081 812.492 59.1881 813.332 55.3615 813.478C50.6548 813.652 44.4148 812.812 42.8548 807.518C30.1215 776.652 17.3481 745.772 4.68147 714.878C3.1348 712.012 4.38813 708.558 6.76146 706.598Z" fill="#282842"/>
<path d="M181.242 710.318C183.095 705.585 188.068 702.918 192.695 701.532C196.962 700.412 203.135 700.718 204.508 705.852C214.028 730.238 223.455 754.665 232.908 779.078C240.842 755.158 248.895 731.292 256.762 707.345C257.548 704.705 259.068 701.932 262.002 701.265C267.868 700.305 273.855 703.025 278.042 707.025C280.828 709.598 281.268 713.825 279.695 717.172C268.428 746.772 257.268 776.412 246.042 806.025C241.308 818.132 236.962 830.598 229.495 841.345C221.095 855.492 203.962 865.172 187.375 861.905C180.375 860.225 179.842 851.278 181.868 845.665C183.522 840.358 190.042 842.105 194.162 840.598C209.188 835.465 219.082 819.918 219.908 804.425C219.468 802.905 218.935 801.438 218.308 799.998C206.495 773.105 195.015 746.065 183.188 719.172C182.082 716.385 180.108 713.412 181.242 710.318Z" fill="#282842"/>
<path d="M135.761 703.852C139.788 702.265 144.362 702.252 148.508 703.372C151.922 704.358 155.495 707.132 154.962 711.092C154.948 741.332 154.948 771.572 154.962 801.812C155.588 806.172 151.588 809.265 147.882 810.465C142.708 811.985 136.468 811.278 132.548 807.292C130.268 805.238 130.721 801.892 130.575 799.145C130.708 769.785 130.508 740.425 130.668 711.078C130.402 707.745 132.815 705.012 135.761 703.852Z" fill="#282842"/>
<path d="M311.828 703.825C317.988 701.305 328.228 702.385 330.148 709.812C330.508 728.932 330.148 748.065 330.295 767.185C330.188 779.665 341.281 791.652 354.001 791.172C366.321 790.985 376.882 779.398 376.602 767.198C376.682 748.452 376.535 729.705 376.642 710.958C376.215 706.945 380.002 704.425 383.362 703.385C388.495 701.932 394.855 702.252 398.868 706.185C400.975 708.158 400.548 711.225 400.655 713.825C400.522 732.492 400.708 751.172 400.575 769.838C399.908 793.665 377.215 813.532 353.748 812.972C329.601 813.825 306.095 793.118 305.988 768.545C305.948 749.385 305.868 730.225 306.015 711.065C305.855 707.518 308.828 705.025 311.828 703.825Z" fill="#282842"/>
<path d="M576.545 68.7285C594.556 63.6736 615.634 77.3096 615.902 96.8143C616.072 133.9 615.975 170.987 615.95 208.048C615.95 224.224 601.055 237.983 585.307 237.589C567.929 238.945 552.255 222.942 553.034 205.434C553.01 170.074 552.961 134.714 553.058 99.3541C552.864 85.3482 562.891 71.7369 576.545 68.7285ZM573.819 75.9534C563.865 80.0467 558.048 91.1183 558.802 101.771C558.997 137.155 558.681 172.565 558.948 207.949C559.459 223.09 575.231 234.852 589.664 231.523C601.882 229.402 611.009 217.615 610.815 205.163C611.082 172.367 610.742 139.547 610.961 106.752C611.009 98.8856 610.498 90.2552 605.436 83.8441C598.377 74.252 584.456 70.4053 573.819 75.9534Z" fill="white"/>
<path d="M432.491 689.241C568.811 688.841 705.171 689.214 841.505 689.054C845.131 688.641 848.998 690.627 850.051 694.281C850.691 697.627 850.371 701.067 850.438 704.454C850.371 741.814 850.451 779.187 850.398 816.561C850.771 820.827 847.331 825.281 842.785 824.734C706.798 824.774 570.811 824.721 434.825 824.761C431.518 825.094 428.038 823.507 426.878 820.254C425.998 816.361 426.491 812.321 426.398 808.361C426.425 771.494 426.411 734.627 426.398 697.774C425.971 693.907 428.385 689.654 432.491 689.241ZM467.478 725.227C454.958 735.321 449.758 753.081 454.491 768.387C458.985 782.801 471.851 794.321 486.811 796.761C495.971 798.094 505.571 797.121 513.945 793.014C517.291 791.374 521.878 789.627 522.065 785.254C522.438 777.027 522.198 768.774 522.185 760.534C522.318 757.161 519.838 753.481 516.211 753.561C509.105 753.507 501.971 753.294 494.878 753.681C489.305 754.667 488.078 763.361 493.105 765.907C497.651 767.934 502.798 766.841 507.625 767.081C507.625 772.054 507.611 777.014 507.638 781.987C502.945 783.094 498.185 784.281 493.318 784.001C485.865 783.867 478.665 780.214 473.931 774.507C466.478 766.014 465.065 752.814 470.798 743.027C476.051 732.974 488.211 727.081 499.345 729.361C503.251 730.001 506.825 731.867 510.691 732.654C515.398 732.721 518.811 726.761 516.451 722.734C515.145 720.334 512.411 719.347 510.038 718.374C495.985 713.001 478.998 715.307 467.478 725.227ZM551.251 735.947C541.558 739.601 534.865 749.094 533.291 759.161C532.358 767.054 532.665 775.467 536.625 782.574C541.171 791.667 551.158 798.014 561.438 797.281C567.838 797.441 573.651 794.161 578.225 789.947C579.398 792.307 580.478 795.267 583.331 796.041C587.918 797.841 592.851 793.214 592.291 788.534C592.318 772.907 592.371 757.267 592.265 741.641C592.438 737.894 589.491 733.934 585.438 734.547C581.198 733.814 579.158 737.974 578.251 741.347C571.238 734.467 560.345 732.894 551.251 735.947ZM607.705 741.667C607.531 757.707 607.611 773.761 607.665 789.814C607.318 796.934 618.985 798.921 620.611 791.801C621.398 781.321 620.518 770.747 620.985 760.241C621.185 756.441 622.291 752.414 625.318 749.867C629.731 746.267 636.451 745.467 641.438 748.321C644.945 750.654 645.678 755.134 645.891 759.027C646.105 769.227 645.731 779.427 645.998 789.614C645.905 792.254 647.465 794.814 649.971 795.747C653.971 797.961 659.745 794.427 659.185 789.774C659.318 780.027 659.091 770.281 659.211 760.547C659.345 756.214 660.905 751.521 664.691 749.067C669.198 746.147 675.451 745.641 680.105 748.521C683.211 750.987 684.065 755.267 684.078 759.041C684.171 768.881 683.958 778.707 684.118 788.547C684.025 791.654 685.625 795.094 688.838 795.961C692.771 797.747 697.785 794.107 697.611 789.881C697.731 779.174 697.625 768.481 697.651 757.774C697.318 750.761 696.185 742.747 690.371 738.027C686.798 734.961 681.905 734.334 677.358 734.561C669.131 734.267 662.065 740.081 657.971 746.774C655.611 740.361 650.145 734.534 642.851 734.641C634.358 733.281 626.038 737.601 621.145 744.427C620.651 742.081 621.131 739.134 619.145 737.374C615.465 733.494 607.678 736.161 607.705 741.667ZM724.865 738.414C706.705 748.841 704.771 778.481 721.425 791.174C730.038 797.827 742.091 798.747 752.265 795.654C756.811 793.921 762.411 791.827 764.011 786.721C765.051 782.001 759.185 778.267 755.211 780.894C749.531 784.347 742.571 786.641 735.998 784.454C729.385 782.854 724.931 776.947 723.158 770.667C735.025 770.441 746.891 770.614 758.758 770.574C761.518 770.521 764.731 770.521 766.651 768.187C769.011 765.201 767.971 761.214 767.251 757.841C764.825 747.041 756.185 737.694 745.358 735.081C738.411 733.814 730.891 734.507 724.865 738.414ZM780.878 742.387C775.385 748.841 776.345 759.974 783.318 765.027C791.398 771.201 802.625 770.521 810.638 776.827C810.691 779.827 811.278 784.027 807.798 785.401C801.305 788.347 793.251 786.441 788.051 781.787C785.665 780.094 783.558 776.907 780.238 777.601C778.171 778.294 775.905 779.454 775.331 781.747C774.171 787.561 779.971 791.374 784.305 793.894C794.971 798.747 809.345 799.267 818.225 790.574C825.118 784.214 824.478 771.774 816.891 766.227C809.291 760.521 799.078 760.761 791.131 755.721C790.358 752.987 790.211 750.161 791.105 747.427C795.158 745.574 799.731 744.467 804.105 745.987C808.171 746.614 810.651 750.214 814.091 752.054C817.411 753.507 821.371 750.707 821.758 747.241C821.118 742.427 816.825 739.107 812.691 737.201C802.425 732.667 788.505 733.294 780.878 742.387Z" fill="#282842"/>
<path d="M556.625 747.694C567.185 743.161 578.931 752.414 579.158 763.347C581.291 774.641 571.518 787.734 559.358 784.947C542.265 781.561 540.745 753.814 556.625 747.694Z" fill="#282842"/>
<path d="M723.305 759.041C724.851 753.521 728.558 747.854 734.731 747.147C742.878 744.747 753.198 750.014 753.771 759.041C743.625 759.107 733.465 759.107 723.305 759.041Z" fill="#282842"/>
<path d="M467.478 725.227C478.998 715.307 495.985 713.001 510.038 718.374C512.411 719.347 515.145 720.334 516.451 722.734C518.811 726.761 515.398 732.721 510.691 732.654C506.825 731.867 503.251 730.001 499.345 729.361C488.211 727.081 476.051 732.974 470.798 743.027C465.065 752.814 466.478 766.014 473.931 774.507C478.665 780.214 485.865 783.867 493.318 784.001C498.185 784.281 502.945 783.094 507.638 781.987C507.611 777.014 507.625 772.054 507.625 767.081C502.798 766.841 497.651 767.934 493.105 765.907C488.078 763.361 489.305 754.667 494.878 753.681C501.971 753.294 509.105 753.507 516.211 753.561C519.838 753.481 522.318 757.161 522.185 760.534C522.198 768.774 522.438 777.027 522.065 785.254C521.878 789.627 517.291 791.374 513.945 793.014C505.571 797.121 495.971 798.094 486.811 796.761C471.851 794.321 458.985 782.801 454.491 768.387C449.758 753.081 454.958 735.321 467.478 725.227Z" fill="white"/>
<path d="M551.251 735.947C560.345 732.894 571.238 734.467 578.251 741.347C579.158 737.974 581.198 733.814 585.438 734.547C589.491 733.934 592.438 737.894 592.265 741.641C592.371 757.267 592.318 772.907 592.291 788.534C592.851 793.214 587.918 797.841 583.331 796.041C580.478 795.267 579.398 792.307 578.224 789.947C573.651 794.161 567.838 797.441 561.438 797.281C551.158 798.014 541.171 791.667 536.625 782.574C532.665 775.467 532.358 767.054 533.291 759.161C534.865 749.094 541.558 739.601 551.251 735.947ZM556.625 747.694C540.745 753.814 542.264 781.561 559.358 784.947C571.518 787.734 581.291 774.641 579.158 763.347C578.931 752.414 567.185 743.161 556.625 747.694Z" fill="white"/>
<path d="M607.705 741.667C607.678 736.161 615.464 733.494 619.144 737.374C621.131 739.134 620.651 742.081 621.144 744.427C626.038 737.601 634.358 733.281 642.851 734.641C650.144 734.534 655.611 740.361 657.971 746.774C662.065 740.081 669.131 734.267 677.358 734.561C681.905 734.334 686.798 734.961 690.371 738.027C696.185 742.747 697.318 750.761 697.651 757.774C697.625 768.481 697.731 779.174 697.611 789.881C697.785 794.107 692.771 797.747 688.838 795.961C685.625 795.094 684.025 791.654 684.118 788.547C683.958 778.707 684.171 768.881 684.078 759.041C684.065 755.267 683.211 750.987 680.104 748.521C675.451 745.641 669.198 746.147 664.691 749.067C660.905 751.521 659.345 756.214 659.211 760.547C659.091 770.281 659.318 780.027 659.184 789.774C659.744 794.427 653.971 797.961 649.971 795.747C647.465 794.814 645.905 792.254 645.998 789.614C645.731 779.427 646.104 769.227 645.891 759.027C645.678 755.134 644.945 750.654 641.438 748.321C636.451 745.467 629.731 746.267 625.318 749.867C622.291 752.414 621.185 756.441 620.985 760.241C620.518 770.747 621.398 781.321 620.611 791.801C618.985 798.921 607.318 796.934 607.665 789.814C607.611 773.761 607.531 757.707 607.705 741.667Z" fill="white"/>
<path d="M724.865 738.414C730.891 734.507 738.411 733.814 745.358 735.081C756.185 737.694 764.825 747.041 767.251 757.841C767.971 761.214 769.011 765.201 766.651 768.187C764.731 770.521 761.518 770.521 758.758 770.574C746.891 770.614 735.025 770.441 723.158 770.667C724.931 776.947 729.385 782.854 735.998 784.454C742.571 786.641 749.531 784.347 755.211 780.894C759.185 778.267 765.051 782.001 764.011 786.721C762.411 791.827 756.811 793.921 752.265 795.654C742.091 798.747 730.038 797.827 721.425 791.174C704.771 778.481 706.705 748.841 724.865 738.414ZM723.305 759.041C733.465 759.107 743.625 759.107 753.771 759.041C753.198 750.014 742.878 744.747 734.731 747.147C728.558 747.854 724.851 753.521 723.305 759.041Z" fill="white"/>
<path d="M780.878 742.387C788.504 733.294 802.425 732.667 812.691 737.201C816.825 739.107 821.118 742.427 821.758 747.241C821.371 750.707 817.411 753.507 814.091 752.054C810.651 750.214 808.171 746.614 804.105 745.987C799.731 744.467 795.158 745.574 791.105 747.427C790.211 750.161 790.358 752.987 791.131 755.721C799.078 760.761 809.291 760.521 816.891 766.227C824.478 771.774 825.118 784.214 818.225 790.574C809.345 799.267 794.971 798.747 784.305 793.894C779.971 791.374 774.171 787.561 775.331 781.747C775.905 779.454 778.171 778.294 780.238 777.601C783.558 776.907 785.665 780.094 788.051 781.787C793.251 786.441 801.304 788.347 807.798 785.401C811.278 784.027 810.691 779.827 810.638 776.827C802.625 770.521 791.398 771.201 783.318 765.027C776.345 759.974 775.384 748.841 780.878 742.387Z" fill="white"/>
<path d="M573.135 76.064C583.879 70.5322 597.942 74.3676 605.072 83.9315C610.186 90.3239 610.702 98.929 610.653 106.772C610.432 139.471 610.776 172.195 610.505 204.894C610.702 217.31 601.482 229.062 589.14 231.177C574.561 234.496 558.629 222.768 558.113 207.673C557.842 172.392 558.162 137.086 557.965 101.806C557.203 91.1844 563.079 80.1453 573.135 76.064Z" fill="#A71D22"/>
<path d="M204.518 83.3907C208.55 80.7354 213.565 81.35 218.163 81.1533C252.657 81.3254 287.175 81.1779 321.694 81.2025C328.578 80.4895 335.02 84.5216 338.29 90.4468C341.019 95.7574 338.781 101.806 336.642 106.895C320.809 140.356 304.828 173.744 289.167 207.304C286.438 213.131 283.438 219.695 277.194 222.498C267.507 226.628 253.911 223.752 249.584 213.303C233.455 179.423 217.548 145.446 201.321 111.591C199.158 106.846 196.822 102.027 196.183 96.8146C195.863 91.1844 199.797 86.0459 204.518 83.3907ZM209.066 87.5703C199.92 90.2747 201.198 100.724 205.501 107.116C222.096 141.586 238.127 176.326 254.796 210.77C258.582 220.113 272.793 221.76 278.939 213.942C283.119 208.041 285.504 201.133 288.675 194.691C302.468 165.729 316.064 136.668 329.98 107.755C331.873 103.551 333.963 99.1994 333.864 94.4789C331.356 88.8242 325.259 85.8247 319.236 86.341C286.413 86.2918 253.591 86.4639 220.769 86.2672C216.86 86.4639 212.754 86.0213 209.066 87.5703Z" fill="#F3F3F3"/>
<path d="M209.066 87.5703C212.754 86.0213 216.86 86.4639 220.769 86.2672C253.591 86.4639 286.413 86.2918 319.236 86.341C325.259 85.8247 331.356 88.8242 333.864 94.4789C333.963 99.1994 331.873 103.551 329.98 107.755C316.064 136.668 302.468 165.729 288.675 194.691C285.504 201.133 283.119 208.041 278.939 213.942C272.793 221.76 258.582 220.113 254.796 210.77C238.127 176.326 222.097 141.586 205.501 107.116C201.198 100.724 199.92 90.2747 209.066 87.5703Z" fill="#2D2D85"/>
<path d="M204.862 320.301C236.209 316.81 267.876 315.875 299.346 318.285C326.218 319.957 354.148 320.498 379.127 331.807C392.871 337.56 404.033 348.771 409.786 362.515C419.005 384.126 418.735 408.122 419.497 431.183C421.341 472.389 421.194 513.891 415.145 554.777C411.802 576.339 400.271 597.753 381.02 608.964C364.425 618.184 344.977 619.094 326.464 620.421C279.775 623.642 232.914 621.38 186.299 617.988C169.802 616.857 153.33 610.808 141.258 599.253C130.194 588.656 123.138 574.323 120.237 559.375C114.263 529.404 116.254 498.696 115.025 468.333C115.615 442.493 116.156 416.579 119.303 390.912C122.302 370.923 129.063 349.583 145.487 336.552C162.402 323.743 184.603 322.858 204.862 320.301ZM196.085 411.687C196.183 416.948 198.199 421.89 200.412 426.561C217.056 461.129 233.185 495.918 249.805 530.486C253.96 539.976 265.368 542.386 274.686 540.493C270.015 549.221 267.236 559.645 258.902 565.792C244.076 577.322 220.105 573.561 210.271 557.309C209.041 552.884 201.248 553.72 204.272 558.858C214.967 581.33 249.289 584.87 266.253 567.635C271.981 562.054 274.76 554.359 278.202 547.327C298.78 505.482 318.596 463.244 337.847 420.759C343.748 410.679 334.897 397.599 323.735 397.722C287.741 397.452 251.747 397.747 215.753 397.599C206.976 396.763 197.068 402.344 196.085 411.687Z" fill="#1A8541"/>
<path d="M521.971 320.202C553.367 316.785 585.083 315.875 616.603 318.359C646.155 320.153 677.625 320.719 703.809 336.306C721.585 347.173 730.263 367.703 732.943 387.617C736.533 415.153 735.623 443.034 737 470.718C736.607 498.746 735.599 526.847 731.419 554.605C728.444 574.323 718.61 593.5 702.432 605.572C690.68 614.127 676.076 617.25 661.89 618.823C608.219 624.208 554.13 621.872 500.434 617.766C479.093 616.119 458.367 604.859 447.033 586.419C434.912 567.463 433.757 544.279 432.38 522.496C430.979 479.101 430.487 435.486 435.38 392.288C438.182 370.407 446.099 346.829 465.276 334.02C482.117 323.399 502.77 322.71 521.971 320.202ZM534.043 398.312C522.709 401.164 522.143 414.391 522.414 423.931C523.176 448.418 520.914 473.078 524.233 497.418C526.987 517.406 542.378 534.789 562.243 539.017C582.403 543.295 605.293 542.976 623.069 531.371C638.238 521.512 644.926 502.876 645.294 485.445C645.565 464.153 645.171 442.862 645.466 421.57C645.294 414.932 646.056 407.015 640.598 402.098C635.067 396.099 626.24 397.82 618.963 397.525C590.664 398.214 562.243 396.542 534.043 398.312Z" fill="#E8A023"/>
<path d="M196.085 411.687C197.068 402.344 206.976 396.763 215.753 397.599C251.747 397.747 287.741 397.452 323.735 397.722C334.897 397.599 343.748 410.679 337.847 420.759C318.596 463.244 298.78 505.482 278.202 547.327C274.76 554.359 271.981 562.054 266.253 567.635C249.289 584.87 214.967 581.33 204.272 558.858C201.248 553.72 209.041 552.884 210.271 557.309C220.105 573.561 244.076 577.322 258.902 565.792C267.236 559.645 270.015 549.221 274.686 540.493C265.368 542.386 253.96 539.976 249.805 530.486C233.185 495.918 217.056 461.129 200.412 426.561C198.199 421.89 196.183 416.948 196.085 411.687ZM207.001 405.319C200.953 408.441 201.1 415.473 204.247 420.685C221.089 456.237 237.832 491.886 254.82 527.364C258.926 537.419 275.792 538.477 280.021 528.052C294.945 497.59 308.59 466.489 324.153 436.347C327.472 428.307 332.955 420.808 333.84 411.982C332.168 405.516 325.136 402.418 318.941 402.934C287.003 402.91 255.066 403.057 223.129 402.885C217.745 403.18 211.697 402.098 207.001 405.319Z" fill="#F2F2F3"/>
<path d="M534.043 398.312C562.243 396.542 590.665 398.214 618.963 397.525C626.24 397.82 635.067 396.099 640.599 402.098C646.057 407.016 645.294 414.932 645.467 421.57C645.172 442.862 645.565 464.153 645.294 485.445C644.926 502.876 638.238 521.512 623.069 531.371C605.293 542.976 582.404 543.295 562.243 539.017C542.378 534.789 526.987 517.406 524.233 497.418C520.914 473.078 523.176 448.418 522.414 423.931C522.143 414.391 522.709 401.164 534.043 398.312ZM536.674 403.598C531.929 404.606 528.659 409.204 528.708 413.924C528.216 432.831 528.782 451.737 528.536 470.644C528.118 485.863 528.634 502.212 537.338 515.341C546.336 529.552 563.866 535.084 579.847 535.87C597.032 536.534 616.258 532.822 627.937 519.127C639.296 505.826 640.107 487.362 640.058 470.718C639.713 451.909 640.549 433.077 639.689 414.318C639.836 406.106 631.231 401.902 624.003 402.91C594.918 403.451 565.685 402.025 536.674 403.598Z" fill="#F2F2F3"/>
<path d="M536.674 403.598C565.685 402.025 594.918 403.45 624.003 402.91C631.231 401.902 639.836 406.106 639.689 414.318C640.549 433.077 639.713 451.909 640.058 470.718C640.107 487.362 639.295 505.826 627.937 519.127C616.258 532.822 597.032 536.534 579.847 535.87C563.866 535.084 546.336 529.552 537.337 515.341C528.634 502.212 528.118 485.863 528.536 470.644C528.782 451.737 528.216 432.831 528.708 413.924C528.659 409.204 531.929 404.606 536.674 403.598Z" fill="#D68228"/>
<path d="M207.001 405.319C211.697 402.098 217.745 403.18 223.129 402.885C255.066 403.057 287.003 402.91 318.941 402.934C325.136 402.418 332.168 405.516 333.84 411.982C332.955 420.808 327.472 428.307 324.153 436.347C308.59 466.489 294.945 497.59 280.021 528.052C275.792 538.477 258.926 537.419 254.82 527.364C237.832 491.886 221.089 456.237 204.247 420.685C201.1 415.473 200.953 408.441 207.001 405.319Z" fill="#0F7139"/>
</g>
<defs>
<filter id="filter0_d_1_57" x="0" y="0" width="854.46" height="870.541" filterUnits="userSpaceOnUse" color-interpolation-filters="sRGB">
<feFlood flood-opacity="0" result="BackgroundImageFix"/>
<feColorMatrix in="SourceAlpha" type="matrix" values="0 0 0 0 0 0 0 0 0 0 0 0 0 0 0 0 0 0 127 0" result="hardAlpha"/>
<feOffset dy="4"/>
<feGaussianBlur stdDeviation="2"/>
<feComposite in2="hardAlpha" operator="out"/>
<feColorMatrix type="matrix" values="0 0 0 0 0 0 0 0 0 0 0 0 0 0 0 0 0 0 0.25 0"/>
<feBlend mode="normal" in2="BackgroundImageFix" result="effect1_dropShadow_1_57"/>
<feBlend mode="normal" in="SourceGraphic" in2="effect1_dropShadow_1_57" result="shape"/>
</filter>
</defs>
</svg>
